<mxfile host="app.diagrams.net" agent="Mozilla/5.0 (Windows NT 10.0; Win64; x64) AppleWebKit/537.36 (KHTML, like Gecko) Chrome/130.0.0.0 Safari/537.36" version="24.8.6">
  <diagram name="Página-1" id="bB26nEsJqC5H9VZv3iXy">
    <mxGraphModel dx="2261" dy="772" grid="1" gridSize="10" guides="1" tooltips="1" connect="1" arrows="1" fold="1" page="1" pageScale="1" pageWidth="827" pageHeight="1169" math="0" shadow="0">
      <root>
        <mxCell id="0" />
        <mxCell id="1" parent="0" />
        <mxCell id="BPzOni1CalHz44KrnCVf-2" value="Usuário" style="shape=umlActor;verticalLabelPosition=bottom;verticalAlign=top;html=1;outlineConnect=0;" parent="1" vertex="1">
          <mxGeometry x="20" y="110" width="40" height="80" as="geometry" />
        </mxCell>
        <mxCell id="BPzOni1CalHz44KrnCVf-11" value="" style="group" parent="1" vertex="1" connectable="0">
          <mxGeometry x="9.999999999999972" y="210" width="60.00000000000006" height="700" as="geometry" />
        </mxCell>
        <mxCell id="BPzOni1CalHz44KrnCVf-8" value="" style="endArrow=none;html=1;rounded=0;" parent="BPzOni1CalHz44KrnCVf-11" edge="1">
          <mxGeometry width="50" height="50" relative="1" as="geometry">
            <mxPoint x="30.00000000000003" y="700" as="sourcePoint" />
            <mxPoint x="30.00000000000003" as="targetPoint" />
          </mxGeometry>
        </mxCell>
        <mxCell id="BPzOni1CalHz44KrnCVf-6" value="" style="rounded=1;whiteSpace=wrap;html=1;rotation=90;" parent="BPzOni1CalHz44KrnCVf-11" vertex="1">
          <mxGeometry x="-290" y="310" width="640" height="60" as="geometry" />
        </mxCell>
        <mxCell id="BPzOni1CalHz44KrnCVf-12" value="&lt;span style=&quot;color: rgba(0, 0, 0, 0); font-family: monospace; font-size: 0px; text-align: start; background-color: rgb(251, 251, 251);&quot;&gt;%3CmxGraphModel%3E%3Croot%3E%3CmxCell%20id%3D%220%22%2F%3E%3CmxCell%20id%3D%221%22%20parent%3D%220%22%2F%3E%3CmxCell%20id%3D%222%22%20value%3D%22%22%20style%3D%22endArrow%3Dclassic%3Bhtml%3D1%3Brounded%3D0%3BexitX%3D0.063%3BexitY%3D0.017%3BexitDx%3D0%3BexitDy%3D0%3BexitPerimeter%3D0%3BentryX%3D0.063%3BentryY%3D1.033%3BentryDx%3D0%3BentryDy%3D0%3BentryPerimeter%3D0%3B%22%20edge%3D%221%22%20parent%3D%221%22%3E%3CmxGeometry%20width%3D%2250%22%20height%3D%2250%22%20relative%3D%221%22%20as%3D%22geometry%22%3E%3CmxPoint%20x%3D%22249%22%20y%3D%22280%22%20as%3D%22sourcePoint%22%2F%3E%3CmxPoint%20x%3D%22548%22%20y%3D%22280%22%20as%3D%22targetPoint%22%2F%3E%3C%2FmxGeometry%3E%3C%2FmxCell%3E%3CmxCell%20id%3D%223%22%20value%3D%22Escaneia%20o%20c%C3%B3digo%20do%20elevador%22%20style%3D%22edgeLabel%3Bhtml%3D1%3Balign%3Dcenter%3BverticalAlign%3Dmiddle%3Bresizable%3D0%3Bpoints%3D%5B%5D%3B%22%20vertex%3D%221%22%20connectable%3D%220%22%20parent%3D%222%22%3E%3CmxGeometry%20x%3D%22-0.0769%22%20y%3D%223%22%20relative%3D%221%22%20as%3D%22geometry%22%3E%3CmxPoint%20x%3D%223%22%20y%3D%22-7%22%20as%3D%22offset%22%2F%3E%3C%2FmxGeometry%3E%3C%2FmxCell%3E%3C%2Froot%3E%3C%2FmxGraphModel%3E&lt;/span&gt;" style="endArrow=classic;html=1;rounded=0;exitX=0.063;exitY=0.017;exitDx=0;exitDy=0;exitPerimeter=0;entryX=0.063;entryY=1.033;entryDx=0;entryDy=0;entryPerimeter=0;" parent="1" source="BPzOni1CalHz44KrnCVf-6" edge="1">
          <mxGeometry width="50" height="50" relative="1" as="geometry">
            <mxPoint x="210" y="350" as="sourcePoint" />
            <mxPoint x="338.02" y="270.31999999999994" as="targetPoint" />
          </mxGeometry>
        </mxCell>
        <mxCell id="BPzOni1CalHz44KrnCVf-13" value="Informar código do elevador (cadastro)" style="edgeLabel;html=1;align=center;verticalAlign=middle;resizable=0;points=[];" parent="BPzOni1CalHz44KrnCVf-12" vertex="1" connectable="0">
          <mxGeometry x="-0.0769" y="3" relative="1" as="geometry">
            <mxPoint x="3" y="-7" as="offset" />
          </mxGeometry>
        </mxCell>
        <mxCell id="BPzOni1CalHz44KrnCVf-18" value="" style="shape=umlBoundary;whiteSpace=wrap;html=1;" parent="1" vertex="1">
          <mxGeometry x="314" y="100" width="100" height="80" as="geometry" />
        </mxCell>
        <mxCell id="BPzOni1CalHz44KrnCVf-20" value="" style="group" parent="1" vertex="1" connectable="0">
          <mxGeometry x="340" y="200" width="85" height="700" as="geometry" />
        </mxCell>
        <mxCell id="BPzOni1CalHz44KrnCVf-21" value="" style="endArrow=none;html=1;rounded=0;" parent="BPzOni1CalHz44KrnCVf-20" edge="1">
          <mxGeometry width="50" height="50" relative="1" as="geometry">
            <mxPoint x="29.5" y="700" as="sourcePoint" />
            <mxPoint x="29.5" as="targetPoint" />
          </mxGeometry>
        </mxCell>
        <mxCell id="BPzOni1CalHz44KrnCVf-22" value="" style="rounded=1;whiteSpace=wrap;html=1;rotation=90;" parent="BPzOni1CalHz44KrnCVf-20" vertex="1">
          <mxGeometry x="-290" y="320" width="640" height="60" as="geometry" />
        </mxCell>
        <mxCell id="BPzOni1CalHz44KrnCVf-19" value="Banco de dados" style="text;html=1;align=center;verticalAlign=middle;resizable=0;points=[];autosize=1;strokeColor=none;fillColor=none;" parent="BPzOni1CalHz44KrnCVf-20" vertex="1">
          <mxGeometry x="-25" y="-20" width="110" height="30" as="geometry" />
        </mxCell>
        <mxCell id="BPzOni1CalHz44KrnCVf-27" value="&lt;span style=&quot;color: rgba(0, 0, 0, 0); font-family: monospace; font-size: 0px; text-align: start; background-color: rgb(251, 251, 251);&quot;&gt;%3CmxGraphModel%3E%3Croot%3E%3CmxCell%20id%3D%220%22%2F%3E%3CmxCell%20id%3D%221%22%20parent%3D%220%22%2F%3E%3CmxCell%20id%3D%222%22%20value%3D%22%22%20style%3D%22endArrow%3Dclassic%3Bhtml%3D1%3Brounded%3D0%3BexitX%3D0.063%3BexitY%3D0.017%3BexitDx%3D0%3BexitDy%3D0%3BexitPerimeter%3D0%3BentryX%3D0.063%3BentryY%3D1.033%3BentryDx%3D0%3BentryDy%3D0%3BentryPerimeter%3D0%3B%22%20edge%3D%221%22%20parent%3D%221%22%3E%3CmxGeometry%20width%3D%2250%22%20height%3D%2250%22%20relative%3D%221%22%20as%3D%22geometry%22%3E%3CmxPoint%20x%3D%22249%22%20y%3D%22280%22%20as%3D%22sourcePoint%22%2F%3E%3CmxPoint%20x%3D%22548%22%20y%3D%22280%22%20as%3D%22targetPoint%22%2F%3E%3C%2FmxGeometry%3E%3C%2FmxCell%3E%3CmxCell%20id%3D%223%22%20value%3D%22Escaneia%20o%20c%C3%B3digo%20do%20elevador%22%20style%3D%22edgeLabel%3Bhtml%3D1%3Balign%3Dcenter%3BverticalAlign%3Dmiddle%3Bresizable%3D0%3Bpoints%3D%5B%5D%3B%22%20vertex%3D%221%22%20connectable%3D%220%22%20parent%3D%222%22%3E%3CmxGeometry%20x%3D%22-0.0769%22%20y%3D%223%22%20relative%3D%221%22%20as%3D%22geometry%22%3E%3CmxPoint%20x%3D%223%22%20y%3D%22-7%22%20as%3D%22offset%22%2F%3E%3C%2FmxGeometry%3E%3C%2FmxCell%3E%3C%2Froot%3E%3C%2FmxGraphModel%3E&lt;/span&gt;" style="endArrow=classic;html=1;rounded=0;exitX=0.222;exitY=1.05;exitDx=0;exitDy=0;exitPerimeter=0;entryX=0.219;entryY=0;entryDx=0;entryDy=0;entryPerimeter=0;endFill=1;strokeColor=default;dashed=1;" parent="1" edge="1">
          <mxGeometry width="50" height="50" relative="1" as="geometry">
            <mxPoint x="337" y="331.91999999999996" as="sourcePoint" />
            <mxPoint x="70" y="330.0000000000001" as="targetPoint" />
          </mxGeometry>
        </mxCell>
        <mxCell id="BPzOni1CalHz44KrnCVf-30" value="Retorna objeto Elevador com&amp;nbsp;&lt;div&gt;cadastro correspondente&lt;/div&gt;" style="edgeLabel;html=1;align=center;verticalAlign=middle;resizable=0;points=[];" parent="BPzOni1CalHz44KrnCVf-27" vertex="1" connectable="0">
          <mxGeometry x="0.0487" relative="1" as="geometry">
            <mxPoint x="3" y="-21" as="offset" />
          </mxGeometry>
        </mxCell>
        <mxCell id="BPzOni1CalHz44KrnCVf-31" value="&lt;span style=&quot;color: rgba(0, 0, 0, 0); font-family: monospace; font-size: 0px; text-align: start; background-color: rgb(251, 251, 251);&quot;&gt;%3CmxGraphModel%3E%3Croot%3E%3CmxCell%20id%3D%220%22%2F%3E%3CmxCell%20id%3D%221%22%20parent%3D%220%22%2F%3E%3CmxCell%20id%3D%222%22%20value%3D%22%22%20style%3D%22endArrow%3Dclassic%3Bhtml%3D1%3Brounded%3D0%3BexitX%3D0.063%3BexitY%3D0.017%3BexitDx%3D0%3BexitDy%3D0%3BexitPerimeter%3D0%3BentryX%3D0.063%3BentryY%3D1.033%3BentryDx%3D0%3BentryDy%3D0%3BentryPerimeter%3D0%3B%22%20edge%3D%221%22%20parent%3D%221%22%3E%3CmxGeometry%20width%3D%2250%22%20height%3D%2250%22%20relative%3D%221%22%20as%3D%22geometry%22%3E%3CmxPoint%20x%3D%22249%22%20y%3D%22280%22%20as%3D%22sourcePoint%22%2F%3E%3CmxPoint%20x%3D%22548%22%20y%3D%22280%22%20as%3D%22targetPoint%22%2F%3E%3C%2FmxGeometry%3E%3C%2FmxCell%3E%3CmxCell%20id%3D%223%22%20value%3D%22Escaneia%20o%20c%C3%B3digo%20do%20elevador%22%20style%3D%22edgeLabel%3Bhtml%3D1%3Balign%3Dcenter%3BverticalAlign%3Dmiddle%3Bresizable%3D0%3Bpoints%3D%5B%5D%3B%22%20vertex%3D%221%22%20connectable%3D%220%22%20parent%3D%222%22%3E%3CmxGeometry%20x%3D%22-0.0769%22%20y%3D%223%22%20relative%3D%221%22%20as%3D%22geometry%22%3E%3CmxPoint%20x%3D%223%22%20y%3D%22-7%22%20as%3D%22offset%22%2F%3E%3C%2FmxGeometry%3E%3C%2FmxCell%3E%3C%2Froot%3E%3C%2FmxGraphModel%3E&lt;/span&gt;" style="endArrow=classic;html=1;rounded=0;exitX=0.063;exitY=0.017;exitDx=0;exitDy=0;exitPerimeter=0;entryX=0.063;entryY=1.033;entryDx=0;entryDy=0;entryPerimeter=0;" parent="1" edge="1">
          <mxGeometry width="50" height="50" relative="1" as="geometry">
            <mxPoint x="70.98" y="440" as="sourcePoint" />
            <mxPoint x="340" y="440.31999999999994" as="targetPoint" />
          </mxGeometry>
        </mxCell>
        <mxCell id="BPzOni1CalHz44KrnCVf-32" value="Inserir dados para modificar Elevador" style="edgeLabel;html=1;align=center;verticalAlign=middle;resizable=0;points=[];" parent="BPzOni1CalHz44KrnCVf-31" vertex="1" connectable="0">
          <mxGeometry x="-0.0769" y="3" relative="1" as="geometry">
            <mxPoint x="3" y="-7" as="offset" />
          </mxGeometry>
        </mxCell>
        <mxCell id="BPzOni1CalHz44KrnCVf-33" value="Cadastro" style="shape=umlFrame;whiteSpace=wrap;html=1;pointerEvents=0;" parent="1" vertex="1">
          <mxGeometry x="-50" y="360" width="500" height="200" as="geometry" />
        </mxCell>
        <mxCell id="BPzOni1CalHz44KrnCVf-34" value="if [Elevador != null ]" style="text;html=1;align=center;verticalAlign=middle;resizable=0;points=[];autosize=1;strokeColor=none;fillColor=none;" parent="1" vertex="1">
          <mxGeometry x="60" y="370" width="130" height="30" as="geometry" />
        </mxCell>
        <mxCell id="BPzOni1CalHz44KrnCVf-35" value="else:&amp;nbsp;" style="text;html=1;align=center;verticalAlign=middle;resizable=0;points=[];autosize=1;strokeColor=none;fillColor=none;" parent="1" vertex="1">
          <mxGeometry x="70" y="460" width="50" height="30" as="geometry" />
        </mxCell>
        <mxCell id="BPzOni1CalHz44KrnCVf-36" value="&lt;span style=&quot;color: rgba(0, 0, 0, 0); font-family: monospace; font-size: 0px; text-align: start; background-color: rgb(251, 251, 251);&quot;&gt;%3CmxGraphModel%3E%3Croot%3E%3CmxCell%20id%3D%220%22%2F%3E%3CmxCell%20id%3D%221%22%20parent%3D%220%22%2F%3E%3CmxCell%20id%3D%222%22%20value%3D%22%22%20style%3D%22endArrow%3Dclassic%3Bhtml%3D1%3Brounded%3D0%3BexitX%3D0.063%3BexitY%3D0.017%3BexitDx%3D0%3BexitDy%3D0%3BexitPerimeter%3D0%3BentryX%3D0.063%3BentryY%3D1.033%3BentryDx%3D0%3BentryDy%3D0%3BentryPerimeter%3D0%3B%22%20edge%3D%221%22%20parent%3D%221%22%3E%3CmxGeometry%20width%3D%2250%22%20height%3D%2250%22%20relative%3D%221%22%20as%3D%22geometry%22%3E%3CmxPoint%20x%3D%22249%22%20y%3D%22280%22%20as%3D%22sourcePoint%22%2F%3E%3CmxPoint%20x%3D%22548%22%20y%3D%22280%22%20as%3D%22targetPoint%22%2F%3E%3C%2FmxGeometry%3E%3C%2FmxCell%3E%3CmxCell%20id%3D%223%22%20value%3D%22Escaneia%20o%20c%C3%B3digo%20do%20elevador%22%20style%3D%22edgeLabel%3Bhtml%3D1%3Balign%3Dcenter%3BverticalAlign%3Dmiddle%3Bresizable%3D0%3Bpoints%3D%5B%5D%3B%22%20vertex%3D%221%22%20connectable%3D%220%22%20parent%3D%222%22%3E%3CmxGeometry%20x%3D%22-0.0769%22%20y%3D%223%22%20relative%3D%221%22%20as%3D%22geometry%22%3E%3CmxPoint%20x%3D%223%22%20y%3D%22-7%22%20as%3D%22offset%22%2F%3E%3C%2FmxGeometry%3E%3C%2FmxCell%3E%3C%2Froot%3E%3C%2FmxGraphModel%3E&lt;/span&gt;" style="endArrow=classic;html=1;rounded=0;exitX=0.063;exitY=0.017;exitDx=0;exitDy=0;exitPerimeter=0;entryX=0.063;entryY=1.033;entryDx=0;entryDy=0;entryPerimeter=0;" parent="1" edge="1">
          <mxGeometry width="50" height="50" relative="1" as="geometry">
            <mxPoint x="70" y="520" as="sourcePoint" />
            <mxPoint x="339.02" y="520.3199999999999" as="targetPoint" />
          </mxGeometry>
        </mxCell>
        <mxCell id="BPzOni1CalHz44KrnCVf-37" value="Inserir dados para criar objeto Elevador" style="edgeLabel;html=1;align=center;verticalAlign=middle;resizable=0;points=[];" parent="BPzOni1CalHz44KrnCVf-36" vertex="1" connectable="0">
          <mxGeometry x="-0.0769" y="3" relative="1" as="geometry">
            <mxPoint x="3" y="-7" as="offset" />
          </mxGeometry>
        </mxCell>
        <mxCell id="BPzOni1CalHz44KrnCVf-38" value="&lt;span style=&quot;color: rgba(0, 0, 0, 0); font-family: monospace; font-size: 0px; text-align: start; background-color: rgb(251, 251, 251);&quot;&gt;%3CmxGraphModel%3E%3Croot%3E%3CmxCell%20id%3D%220%22%2F%3E%3CmxCell%20id%3D%221%22%20parent%3D%220%22%2F%3E%3CmxCell%20id%3D%222%22%20value%3D%22%22%20style%3D%22endArrow%3Dclassic%3Bhtml%3D1%3Brounded%3D0%3BexitX%3D0.063%3BexitY%3D0.017%3BexitDx%3D0%3BexitDy%3D0%3BexitPerimeter%3D0%3BentryX%3D0.063%3BentryY%3D1.033%3BentryDx%3D0%3BentryDy%3D0%3BentryPerimeter%3D0%3B%22%20edge%3D%221%22%20parent%3D%221%22%3E%3CmxGeometry%20width%3D%2250%22%20height%3D%2250%22%20relative%3D%221%22%20as%3D%22geometry%22%3E%3CmxPoint%20x%3D%22249%22%20y%3D%22280%22%20as%3D%22sourcePoint%22%2F%3E%3CmxPoint%20x%3D%22548%22%20y%3D%22280%22%20as%3D%22targetPoint%22%2F%3E%3C%2FmxGeometry%3E%3C%2FmxCell%3E%3CmxCell%20id%3D%223%22%20value%3D%22Escaneia%20o%20c%C3%B3digo%20do%20elevador%22%20style%3D%22edgeLabel%3Bhtml%3D1%3Balign%3Dcenter%3BverticalAlign%3Dmiddle%3Bresizable%3D0%3Bpoints%3D%5B%5D%3B%22%20vertex%3D%221%22%20connectable%3D%220%22%20parent%3D%222%22%3E%3CmxGeometry%20x%3D%22-0.0769%22%20y%3D%223%22%20relative%3D%221%22%20as%3D%22geometry%22%3E%3CmxPoint%20x%3D%223%22%20y%3D%22-7%22%20as%3D%22offset%22%2F%3E%3C%2FmxGeometry%3E%3C%2FmxCell%3E%3C%2Froot%3E%3C%2FmxGraphModel%3E&lt;/span&gt;" style="endArrow=classic;html=1;rounded=0;exitX=0.222;exitY=1.05;exitDx=0;exitDy=0;exitPerimeter=0;entryX=0.219;entryY=0;entryDx=0;entryDy=0;entryPerimeter=0;endFill=1;strokeColor=default;dashed=1;" parent="1" edge="1">
          <mxGeometry width="50" height="50" relative="1" as="geometry">
            <mxPoint x="337" y="601.92" as="sourcePoint" />
            <mxPoint x="70" y="600.0000000000001" as="targetPoint" />
          </mxGeometry>
        </mxCell>
        <mxCell id="BPzOni1CalHz44KrnCVf-39" value="Requisita senha do usuário master" style="edgeLabel;html=1;align=center;verticalAlign=middle;resizable=0;points=[];" parent="BPzOni1CalHz44KrnCVf-38" vertex="1" connectable="0">
          <mxGeometry x="0.0487" relative="1" as="geometry">
            <mxPoint y="-11" as="offset" />
          </mxGeometry>
        </mxCell>
        <mxCell id="BPzOni1CalHz44KrnCVf-40" value="&lt;span style=&quot;color: rgba(0, 0, 0, 0); font-family: monospace; font-size: 0px; text-align: start; background-color: rgb(251, 251, 251);&quot;&gt;%3CmxGraphModel%3E%3Croot%3E%3CmxCell%20id%3D%220%22%2F%3E%3CmxCell%20id%3D%221%22%20parent%3D%220%22%2F%3E%3CmxCell%20id%3D%222%22%20value%3D%22%22%20style%3D%22endArrow%3Dclassic%3Bhtml%3D1%3Brounded%3D0%3BexitX%3D0.063%3BexitY%3D0.017%3BexitDx%3D0%3BexitDy%3D0%3BexitPerimeter%3D0%3BentryX%3D0.063%3BentryY%3D1.033%3BentryDx%3D0%3BentryDy%3D0%3BentryPerimeter%3D0%3B%22%20edge%3D%221%22%20parent%3D%221%22%3E%3CmxGeometry%20width%3D%2250%22%20height%3D%2250%22%20relative%3D%221%22%20as%3D%22geometry%22%3E%3CmxPoint%20x%3D%22249%22%20y%3D%22280%22%20as%3D%22sourcePoint%22%2F%3E%3CmxPoint%20x%3D%22548%22%20y%3D%22280%22%20as%3D%22targetPoint%22%2F%3E%3C%2FmxGeometry%3E%3C%2FmxCell%3E%3CmxCell%20id%3D%223%22%20value%3D%22Escaneia%20o%20c%C3%B3digo%20do%20elevador%22%20style%3D%22edgeLabel%3Bhtml%3D1%3Balign%3Dcenter%3BverticalAlign%3Dmiddle%3Bresizable%3D0%3Bpoints%3D%5B%5D%3B%22%20vertex%3D%221%22%20connectable%3D%220%22%20parent%3D%222%22%3E%3CmxGeometry%20x%3D%22-0.0769%22%20y%3D%223%22%20relative%3D%221%22%20as%3D%22geometry%22%3E%3CmxPoint%20x%3D%223%22%20y%3D%22-7%22%20as%3D%22offset%22%2F%3E%3C%2FmxGeometry%3E%3C%2FmxCell%3E%3C%2Froot%3E%3C%2FmxGraphModel%3E&lt;/span&gt;" style="endArrow=classic;html=1;rounded=0;exitX=0.063;exitY=0.017;exitDx=0;exitDy=0;exitPerimeter=0;entryX=0.063;entryY=1.033;entryDx=0;entryDy=0;entryPerimeter=0;" parent="1" edge="1">
          <mxGeometry width="50" height="50" relative="1" as="geometry">
            <mxPoint x="70.98" y="660" as="sourcePoint" />
            <mxPoint x="340" y="660.3199999999999" as="targetPoint" />
          </mxGeometry>
        </mxCell>
        <mxCell id="BPzOni1CalHz44KrnCVf-41" value="Confirmação com senha" style="edgeLabel;html=1;align=center;verticalAlign=middle;resizable=0;points=[];" parent="BPzOni1CalHz44KrnCVf-40" vertex="1" connectable="0">
          <mxGeometry x="-0.0769" y="3" relative="1" as="geometry">
            <mxPoint x="3" y="-7" as="offset" />
          </mxGeometry>
        </mxCell>
        <mxCell id="BPzOni1CalHz44KrnCVf-42" value="&lt;span style=&quot;color: rgba(0, 0, 0, 0); font-family: monospace; font-size: 0px; text-align: start; background-color: rgb(251, 251, 251);&quot;&gt;%3CmxGraphModel%3E%3Croot%3E%3CmxCell%20id%3D%220%22%2F%3E%3CmxCell%20id%3D%221%22%20parent%3D%220%22%2F%3E%3CmxCell%20id%3D%222%22%20value%3D%22%22%20style%3D%22endArrow%3Dclassic%3Bhtml%3D1%3Brounded%3D0%3BexitX%3D0.063%3BexitY%3D0.017%3BexitDx%3D0%3BexitDy%3D0%3BexitPerimeter%3D0%3BentryX%3D0.063%3BentryY%3D1.033%3BentryDx%3D0%3BentryDy%3D0%3BentryPerimeter%3D0%3B%22%20edge%3D%221%22%20parent%3D%221%22%3E%3CmxGeometry%20width%3D%2250%22%20height%3D%2250%22%20relative%3D%221%22%20as%3D%22geometry%22%3E%3CmxPoint%20x%3D%22249%22%20y%3D%22280%22%20as%3D%22sourcePoint%22%2F%3E%3CmxPoint%20x%3D%22548%22%20y%3D%22280%22%20as%3D%22targetPoint%22%2F%3E%3C%2FmxGeometry%3E%3C%2FmxCell%3E%3CmxCell%20id%3D%223%22%20value%3D%22Escaneia%20o%20c%C3%B3digo%20do%20elevador%22%20style%3D%22edgeLabel%3Bhtml%3D1%3Balign%3Dcenter%3BverticalAlign%3Dmiddle%3Bresizable%3D0%3Bpoints%3D%5B%5D%3B%22%20vertex%3D%221%22%20connectable%3D%220%22%20parent%3D%222%22%3E%3CmxGeometry%20x%3D%22-0.0769%22%20y%3D%223%22%20relative%3D%221%22%20as%3D%22geometry%22%3E%3CmxPoint%20x%3D%223%22%20y%3D%22-7%22%20as%3D%22offset%22%2F%3E%3C%2FmxGeometry%3E%3C%2FmxCell%3E%3C%2Froot%3E%3C%2FmxGraphModel%3E&lt;/span&gt;" style="endArrow=classic;html=1;rounded=0;exitX=0.222;exitY=1.05;exitDx=0;exitDy=0;exitPerimeter=0;entryX=0.219;entryY=0;entryDx=0;entryDy=0;entryPerimeter=0;endFill=1;strokeColor=default;dashed=1;" parent="1" edge="1">
          <mxGeometry width="50" height="50" relative="1" as="geometry">
            <mxPoint x="337" y="731.92" as="sourcePoint" />
            <mxPoint x="70" y="730.0000000000001" as="targetPoint" />
          </mxGeometry>
        </mxCell>
        <mxCell id="BPzOni1CalHz44KrnCVf-43" value="Retorna sucesso" style="edgeLabel;html=1;align=center;verticalAlign=middle;resizable=0;points=[];" parent="BPzOni1CalHz44KrnCVf-42" vertex="1" connectable="0">
          <mxGeometry x="0.0487" relative="1" as="geometry">
            <mxPoint y="-11" as="offset" />
          </mxGeometry>
        </mxCell>
      </root>
    </mxGraphModel>
  </diagram>
</mxfile>
